<?xml version="1.0" encoding="iso-8859-1"?>
<!-- Generator: Adobe Illustrator 19.0.0, SVG Export Plug-In . SVG Version: 6.00 Build 0)  -->
<svg version="1.1" id="Layer_1" xmlns="http://www.w3.org/2000/svg" xmlns:xlink="http://www.w3.org/1999/xlink" x="0px" y="0px"
	 viewBox="0 0 512 512" style="enable-background:new 0 0 512 512;" xml:space="preserve">
<path style="fill:#FF5E5B;" d="M75.992,197.73v15.056l28.319,278.718C105.494,503.145,115.296,512,126.996,512h258.01
	c11.7,0,21.502-8.856,22.684-20.495l28.319-278.718V197.73H75.992z"/>
<path style="fill:#ED3E3C;" d="M255.995,197.73V512h129.01c11.7,0,21.502-8.856,22.684-20.495l28.319-278.718V197.73H255.995z"/>
<rect x="201.275" y="212.994" style="fill:#FFC72D;" width="109.446" height="298.91"/>
<path style="fill:#FFEDBE;" d="M438.496,121.753c-0.134,0-0.264,0.009-0.398,0.011c4.202-8.433,6.577-17.937,6.577-27.998
	c0-34.734-28.158-62.892-62.892-62.892c-20.742,0-39.132,10.045-50.587,25.53C321.71,23.82,291.647,0,256.001,0
	s-65.71,23.82-75.196,56.403c-11.455-15.484-29.847-25.53-50.588-25.53c-34.734,0-62.892,28.158-62.892,62.892
	c0,10.061,2.376,19.565,6.577,27.998c-0.134-0.002-0.264-0.011-0.398-0.011c-25.197,0-45.624,20.427-45.624,45.624
	s20.427,45.624,45.624,45.624h364.991c25.197,0,45.624-20.427,45.624-45.624S463.693,121.753,438.496,121.753z"/>
<path style="fill:#FFE49C;" d="M438.496,121.753c-0.134,0-0.264,0.009-0.398,0.011c4.202-8.433,6.577-17.937,6.577-27.998
	c0-34.734-28.158-62.892-62.892-62.892c-20.742,0-39.132,10.045-50.587,25.53C321.71,23.82,291.647,0,256.001,0
	c-0.002,0-0.003,0-0.005,0v213.001h182.5c25.197,0,45.624-20.427,45.624-45.624S463.693,121.753,438.496,121.753z"/>
<rect x="255.998" y="212.994" style="fill:#F5BC20;" width="54.723" height="298.91"/>
<path style="fill:#23B898;" d="M310.724,432.758c-32.122,25.071-77.34,25.057-109.446,0c-45.87-35.734-45.771-104.948,0-140.608
	c32.122-25.071,77.34-25.057,109.446,0C356.589,327.884,356.5,397.097,310.724,432.758z"/>
<path style="fill:#1DA49C;" d="M310.724,292.15c-16.057-12.532-35.392-18.799-54.728-18.797v178.204
	c19.332,0.002,38.668-6.264,54.728-18.799C356.5,397.097,356.589,327.884,310.724,292.15z"/>
<g>
</g>
<g>
</g>
<g>
</g>
<g>
</g>
<g>
</g>
<g>
</g>
<g>
</g>
<g>
</g>
<g>
</g>
<g>
</g>
<g>
</g>
<g>
</g>
<g>
</g>
<g>
</g>
<g>
</g>
</svg>
