<?xml version="1.0" encoding="iso-8859-1"?>
<!-- Generator: Adobe Illustrator 19.0.0, SVG Export Plug-In . SVG Version: 6.00 Build 0)  -->
<svg version="1.1" id="Capa_1" xmlns="http://www.w3.org/2000/svg" xmlns:xlink="http://www.w3.org/1999/xlink" x="0px" y="0px"
	 viewBox="0 0 463 463" style="enable-background:new 0 0 463 463;" xml:space="preserve">
<path d="M415.5,256H383V150.277c18.206-3.515,32.001-19.561,32.001-38.777V95.635c0-0.004,0-0.008,0-0.012V95.5
	c0-0.062-0.008-0.122-0.009-0.183c-0.004-0.173-0.01-0.346-0.026-0.519c-0.009-0.095-0.024-0.187-0.036-0.281
	c-0.019-0.148-0.039-0.295-0.068-0.442c-0.023-0.12-0.053-0.236-0.082-0.353c-0.029-0.117-0.056-0.235-0.09-0.351
	c-0.042-0.144-0.093-0.284-0.144-0.424c-0.032-0.088-0.061-0.177-0.097-0.265c-0.066-0.163-0.142-0.322-0.219-0.479
	c-0.026-0.053-0.046-0.108-0.073-0.161l-0.054-0.104c-0.003-0.006-0.006-0.012-0.01-0.018l-38.931-74.94
	C369.722,6.506,359.011,0,347.208,0H147.792c-11.803,0-22.514,6.506-27.953,16.979L80.912,91.914
	c-0.007,0.012-0.013,0.025-0.019,0.037l-0.048,0.092c-0.024,0.047-0.042,0.095-0.065,0.143c-0.081,0.164-0.16,0.33-0.229,0.501
	c-0.034,0.082-0.061,0.166-0.091,0.249c-0.053,0.145-0.105,0.29-0.149,0.439c-0.033,0.113-0.059,0.226-0.087,0.339
	c-0.03,0.121-0.061,0.241-0.084,0.364c-0.028,0.144-0.047,0.289-0.066,0.433c-0.013,0.096-0.028,0.191-0.037,0.289
	c-0.016,0.172-0.022,0.343-0.026,0.514C80.008,95.377,80,95.437,80,95.5v0.125c0,0.004,0,0.008,0,0.012V111.5
	c0,19.216,13.795,35.262,32,38.777V256H79.5c-4.143,0-7.5,3.357-7.5,7.5s3.357,7.5,7.5,7.5H88v52.987
	c-27.912,9.744-48,36.32-48,67.513c0,39.425,32.075,71.5,71.5,71.5c36.892,0,67.343-28.087,71.105-64H368v18.234
	c-9.29,3.138-16,11.93-16,22.266c0,12.958,10.542,23.5,23.5,23.5s23.5-10.542,23.5-23.5c0-10.336-6.71-19.128-16-22.266V399h8.5
	c8.547,0,15.5-6.953,15.5-15.5V271h8.5c4.143,0,7.5-3.357,7.5-7.5S419.643,256,415.5,256z M375.5,448c-4.687,0-8.5-3.813-8.5-8.5
	s3.813-8.5,8.5-8.5s8.5,3.813,8.5,8.5S380.187,448,375.5,448z M271,256v-32.371c3.17,0.611,5.518,1.613,8.203,2.765
	c5.036,2.159,10.744,4.606,21.613,4.606c10.875,0,16.586-2.447,21.625-4.606c4.425-1.896,7.921-3.394,15.717-3.394
	s11.292,1.498,15.717,3.394c3.73,1.599,7.835,3.352,14.125,4.157V256H271z M368,183v32.372c-3.177-0.611-5.528-1.614-8.217-2.766
	c-5.039-2.159-10.75-4.606-21.625-4.606s-16.586,2.447-21.625,4.606c-4.425,1.896-7.921,3.394-15.717,3.394
	c-7.789,0-11.281-1.497-15.703-3.394c-3.728-1.598-7.829-3.351-14.113-4.156V183H368z M375.5,136c-13.51,0-24.5-10.99-24.5-24.5V103
	h49.001v8.5C400.001,125.01,389.01,136,375.5,136z M216.323,15l-7.585,73h-47.045l22.754-73H216.323z M263.596,15l7.584,73h-47.36
	l7.585-73H263.596z M310.554,15l22.753,73h-47.045l-7.584-73H310.554z M159,103h49v8.5c0,13.51-10.99,24.5-24.5,24.5
	S159,125.01,159,111.5V103z M223,103h49v8.5c0,13.51-10.99,24.5-24.5,24.5S223,125.01,223,111.5V103z M287,103h49v8.5
	c0,13.51-10.99,24.5-24.5,24.5S287,125.01,287,111.5V103z M361.851,23.894L395.153,88h-46.135l-22.753-73h20.943
	C353.391,15,359.001,18.408,361.851,23.894z M133.149,23.894c2.85-5.485,8.46-8.894,14.643-8.894h20.944l-22.754,73H99.847
	L133.149,23.894z M95,111.5V103h49v8.5c0,13.51-10.99,24.5-24.5,24.5S95,125.01,95,111.5z M127,150.277
	c10.031-1.937,18.718-7.678,24.5-15.661c7.183,9.916,18.847,16.384,32,16.384s24.817-6.468,32-16.384
	c7.183,9.916,18.847,16.384,32,16.384s24.817-6.468,32-16.384c7.183,9.916,18.847,16.384,32,16.384s24.817-6.468,32-16.384
	c5.782,7.982,14.469,13.724,24.5,15.661V168H255.5c-4.143,0-7.5,3.357-7.5,7.5s3.357,7.5,7.5,7.5h0.5v73h-47.646l6.544-39.267
	c0.362-2.175-0.251-4.399-1.676-6.081c-1.425-1.683-3.518-2.652-5.723-2.652h-40c-2.205,0-4.298,0.97-5.723,2.652
	c-1.425,1.682-2.038,3.906-1.676,6.081L166.646,256H127V150.277z M181.854,256l-5.5-33h22.293l-5.5,33H181.854z M145.771,346.622
	l-17.946,17.946c-2.702-1.644-5.672-2.886-8.824-3.659v-25.396C128.977,336.843,138.136,340.779,145.771,346.622z M156.378,425.771
	l-17.946-17.946c1.644-2.702,2.886-5.672,3.659-8.824h25.396C166.157,408.977,162.221,418.136,156.378,425.771z M55.513,399h25.396
	c0.773,3.153,2.016,6.123,3.659,8.825l-17.946,17.947C60.779,418.137,56.843,408.977,55.513,399z M66.622,357.229l17.946,17.946
	c-1.644,2.702-2.886,5.672-3.659,8.824H55.513C56.843,374.023,60.779,364.864,66.622,357.229z M111.5,375
	c9.098,0,16.5,7.402,16.5,16.5s-7.402,16.5-16.5,16.5c-9.094,0-16.494-7.397-16.5-16.49c0-0.003,0-0.007,0-0.01s0-0.006,0-0.01
	C95.006,382.397,102.406,375,111.5,375z M95.175,418.431c2.702,1.644,5.672,2.886,8.825,3.659v25.396
	c-9.977-1.33-19.136-5.266-26.771-11.109L95.175,418.431z M119,422.091c3.152-0.773,6.122-2.015,8.824-3.659l17.946,17.946
	c-7.634,5.844-16.794,9.779-26.771,11.109V422.091z M142.091,384c-0.773-3.152-2.015-6.122-3.659-8.824l17.946-17.946
	c5.844,7.634,9.779,16.794,11.109,26.771H142.091z M104,360.909c-3.152,0.773-6.122,2.015-8.824,3.659l-17.946-17.946
	c7.634-5.844,16.794-9.779,26.771-11.109V360.909z M392,383.5c0,0.275-0.225,0.5-0.5,0.5H182.605c-3.761-35.913-34.213-64-71.105-64
	c-2.878,0-5.71,0.191-8.5,0.523V271h289V383.5z"/>
<g>
</g>
<g>
</g>
<g>
</g>
<g>
</g>
<g>
</g>
<g>
</g>
<g>
</g>
<g>
</g>
<g>
</g>
<g>
</g>
<g>
</g>
<g>
</g>
<g>
</g>
<g>
</g>
<g>
</g>
</svg>
