<?xml version="1.0" encoding="iso-8859-1"?>
<!-- Generator: Adobe Illustrator 19.0.0, SVG Export Plug-In . SVG Version: 6.00 Build 0)  -->
<svg version="1.1" id="Layer_1" xmlns="http://www.w3.org/2000/svg" xmlns:xlink="http://www.w3.org/1999/xlink" x="0px" y="0px"
	 viewBox="0 0 511.998 511.998" style="enable-background:new 0 0 511.998 511.998;" xml:space="preserve">
<g>
	<g>
		<path d="M449.575,117.361C458.07,52.659,388.365,5.992,331.77,39.147c-37.25-52.223-114.232-52.168-151.444,0
			C123.771,6.016,54.023,52.614,62.52,117.361c-21.743,9.894-36.896,31.824-36.896,57.228c0,28.812,19.497,53.138,45.986,60.523
			L97.83,493.177c1.086,10.689,10.087,18.821,20.831,18.821h274.772c10.744,0,19.745-8.133,20.831-18.821l26.221-258.066
			C496.868,219.393,502.92,141.635,449.575,117.361z M184.857,279.638c-42.083,40.294-42.125,107.869,0,148.188v42.295h-47.276
			l-23.643-232.695h70.918V279.638z M285.363,470.04h-58.628v-17.762c18.83,5.6,39.013,5.782,58.628,0.001V470.04z M259.921,414.53
			c-34.608,2.21-64.745-25.268-64.745-60.784c0-34.161,27.822-60.946,60.868-60.946c0.824,0,1.649,0.017,2.472,0.05
			c31.982,1.301,58.402,27.621,58.402,60.872C316.916,385.81,291.911,412.483,259.921,414.53z M226.734,255.184v-17.759h58.628
			v17.759C265.733,249.398,246.048,249.566,226.734,255.184z M374.514,470.122h-47.276v-42.298
			c41.654-39.883,42.099-106.461,1.319-146.906c-0.434-0.431-0.875-0.857-1.319-1.28v-42.213h70.918L374.514,470.122z
			 M423.97,195.531c-2.03-0.255-333.25-0.327-335.845,0c-11.4-0.181-20.623-9.498-20.623-20.942c0-11.477,9.273-20.83,20.721-20.957
			c0.123,0.003,0.244,0.006,0.369,0.007c15.552,0.232,25.971-16.23,18.976-30.273c-2.549-5.117-3.842-10.628-3.842-16.375
			c0-35.416,45.392-50.303,66.437-21.857c10.281,13.896,32.101,10.013,36.939-6.6c6.291-21.614,26.421-36.71,48.948-36.71
			c22.527,0,42.656,15.095,48.948,36.71c4.831,16.595,26.647,20.512,36.937,6.6c21.046-28.449,66.437-13.561,66.437,21.857
			c0,5.747-1.293,11.255-3.842,16.373c-6.922,13.894,3.195,30.276,18.74,30.276c0.202,0,0.401-0.003,0.603-0.008
			c11.448,0.126,20.722,9.478,20.722,20.957C444.593,186.032,435.371,195.35,423.97,195.531z"/>
	</g>
</g>
<g>
</g>
<g>
</g>
<g>
</g>
<g>
</g>
<g>
</g>
<g>
</g>
<g>
</g>
<g>
</g>
<g>
</g>
<g>
</g>
<g>
</g>
<g>
</g>
<g>
</g>
<g>
</g>
<g>
</g>
</svg>
